<svg width="581" height="176" viewBox="0 0 581 176" fill="none" xmlns="http://www.w3.org/2000/svg">
<path fill-rule="evenodd" clip-rule="evenodd" d="M264.5 3.00001C268.4 2.40001 276.2 1.50001 282 1.10001C287.8 0.600006 298.6 0.400006 306 0.700006C313.4 1.00001 325.4 1.80001 332.5 2.60001C339.6 3.40001 350 5.00001 355.5 6.10001C361 7.20001 370.7 9.50001 377 11.2C383.3 12.9 394.4 16.2 401.5 18.7C408.6 21.1 420.8 25.8 428.5 29.2C436.2 32.5 455.3 41.5 471 49.2C486.7 56.9 504.2 65.2 510 67.7C515.8 70.1 524.1 73 528.5 74.1C533 75.3 542.4 76.5 550 77C558.7 77.5 564.9 78.3 567.5 79.4C569.7 80.4 572.7 82.3 574.3 83.8C575.8 85.3 577.9 88.6 579 91.2C580.1 93.9 580.7 96.3 580.4 96.7C580.1 97.2 568.8 96.9 555.2 96.2C541.6 95.6 519.5 94.7 481.5 93.6L475.6 88C472.4 85 466.1 79.6 461.6 76C457.2 72.4 448.1 65.9 441.5 61.5C434.9 57.1 423.6 50.6 416.5 46.9C409.4 43.2 399 38.4 393.5 36.2C388 34 379 30.8 373.5 29.1C368 27.4 359.2 25.2 354 24.1C348.8 23 340.9 21.5 336.5 20.8C331.5 20 319.6 19.5 305 19.5C287.7 19.6 278.1 20 268.5 21.4C261.4 22.4 249.4 24.7 242 26.5C234.6 28.4 223.6 31.6 217.5 33.8C211.4 36 202.2 39.6 197 41.9C191.8 44.2 183.4 48.4 178.5 51.2C173.6 54.1 166.2 58.5 155 66L133.3 67C121.3 67.6 105.2 68.5 97.5002 69C89.8002 69.6 79.0002 70.5 73.5002 71.1C68.0002 71.6 58.0002 73.2 51.2002 74.6C44.5002 75.9 35.5002 78.4 31.3002 80.1C27.0002 81.8 21.5002 84.4 19.0002 85.8C16.5002 87.2 11.2002 90.6 7.3002 93.2C3.3002 95.8 0.000197671 97.7 0.000197671 97.2C-0.0998024 96.8 3.3002 93.2 7.5002 89.2C11.6002 85.3 18.7002 79.6 23.2002 76.6C27.8002 73.6 34.7002 69.8 38.5002 68C42.3002 66.3 48.4002 64 52.0002 62.9C55.6002 61.8 63.4002 60 69.5002 59C75.6002 57.9 87.5002 56.1 96.0002 55C104.5 53.9 120.5 52.1 151.5 49.3L163.3 42.1C169.7 38.2 180.3 32.4 186.7 29.1C193.2 25.9 202.8 21.4 208 19.2C213.2 17 222 13.8 227.5 12C233 10.3 242 7.80001 247.5 6.50001C253 5.20001 260.6 3.70001 264.5 3.00001ZM397.5 50.1C392 46.5 382.8 41.2 377 38.3C371.2 35.4 366.8 33 367.3 33C367.7 33 373.1 34.8 379.2 37C385.4 39.2 396.8 44.1 404.5 47.8C412.2 51.6 422.8 57.3 428 60.5C433.2 63.8 442.7 70.3 449 75.1C455.3 79.9 463 86.1 471.5 93.9L444.5 94L442.1 90.8C440.7 89 437.1 84.6 434.1 81.1C431 77.6 423.8 70.7 418 65.7C412.2 60.7 403 53.7 397.5 50.1ZM345.5 69.8C353.7 67 366.6 62.1 374 58.9C381.4 55.7 387.7 53 388 53C388.3 53 389.4 53.6 390.5 54.4C391.6 55.2 392.3 56 392 56.3C391.7 56.6 387.4 58.8 382.5 61.3C377.6 63.7 367.2 68.1 359.5 71C351.8 73.9 338.7 77.9 330.5 80C322.2 82.1 310.1 84.7 303.5 85.8C296.9 87 285.6 88.4 278.5 89.1C269.8 89.9 255.4 90.1 235 89.7C214.7 89.3 198.1 88.5 185.3 87.1C174.7 85.9 159.6 84.1 151.8 83C143.9 81.9 131 79.9 123 78.5C115 77.1 108.3 75.8 108 75.5C107.7 75.3 114.2 74.8 122.5 74.4C130.7 74 143.3 73.7 150.5 73.6C162.5 73.5 164.6 73.8 177 77.1C184.4 79.1 197.5 81.8 206 83.1C219.6 85.2 225 85.5 250.5 85.4C275.7 85.4 281.3 85.1 293 83.2C300.4 81.9 311.9 79.6 318.5 77.9C325.1 76.3 337.2 72.6 345.5 69.8Z" fill="#FF0404"/>
<path fill-rule="evenodd" clip-rule="evenodd" d="M397.5 50.1C392 46.5 382.8 41.2 377 38.3C371.2 35.4 366.8 33 367.3 33C367.7 33 373.1 34.8 379.2 37C385.4 39.2 396.8 44.1 404.5 47.8C412.2 51.6 422.8 57.3 428 60.5C433.2 63.8 442.7 70.3 449 75.1C455.3 79.9 463 86.1 471.5 93.9L444.5 94L442.1 90.8C440.7 89 437.1 84.6 434.1 81.1C431 77.6 423.8 70.7 418 65.7C412.2 60.7 403 53.7 397.5 50.1ZM345.5 69.8C353.7 67 366.6 62.1 374 58.9C381.4 55.7 387.7 53 388 53C388.3 53 389.4 53.6 390.5 54.4C391.6 55.2 392.3 56 392 56.3C391.7 56.6 387.4 58.8 382.5 61.3C377.6 63.7 367.2 68.1 359.5 71C351.8 73.9 338.7 77.9 330.5 80C322.2 82.1 310.1 84.7 303.5 85.8C296.9 87 285.6 88.4 278.5 89.1C269.8 89.9 255.4 90.1 235 89.7C214.7 89.3 198.1 88.5 185.3 87.1C174.7 85.9 159.6 84.1 151.8 83C143.9 81.9 131 79.9 123 78.5C115 77.1 108.3 75.8 108 75.5C107.7 75.3 114.2 74.8 122.5 74.4C130.7 74 143.3 73.7 150.5 73.6C162.5 73.5 164.6 73.8 177 77.1C184.4 79.1 197.5 81.8 206 83.1C219.6 85.2 225 85.5 250.5 85.4C275.7 85.4 281.3 85.1 293 83.2C300.4 81.9 311.9 79.6 318.5 77.9C325.1 76.3 337.2 72.6 345.5 69.8Z" fill="black"/>
<path d="M79.0909 161H65.4545L80.8182 114.455H98.0909L113.455 161H99.8182L89.6364 127.273H89.2727L79.0909 161ZM76.5455 142.636H102.182V152.091H76.5455V142.636ZM146.123 114.455H158.759V144.273C158.759 147.818 157.911 150.886 156.214 153.477C154.532 156.053 152.184 158.045 149.168 159.455C146.153 160.848 142.653 161.545 138.668 161.545C134.653 161.545 131.138 160.848 128.123 159.455C125.108 158.045 122.759 156.053 121.077 153.477C119.411 150.886 118.577 147.818 118.577 144.273V114.455H131.214V143.182C131.214 144.621 131.532 145.909 132.168 147.045C132.805 148.167 133.684 149.045 134.805 149.682C135.941 150.318 137.229 150.636 138.668 150.636C140.123 150.636 141.411 150.318 142.532 149.682C143.653 149.045 144.532 148.167 145.168 147.045C145.805 145.909 146.123 144.621 146.123 143.182V114.455ZM164.132 124.636V114.455H204.587V124.636H190.587V161H178.132V124.636H164.132ZM252.886 137.727C252.886 142.909 251.878 147.28 249.863 150.841C247.848 154.386 245.128 157.076 241.704 158.909C238.28 160.727 234.462 161.636 230.25 161.636C226.007 161.636 222.174 160.72 218.75 158.886C215.34 157.038 212.628 154.341 210.613 150.795C208.613 147.235 207.613 142.879 207.613 137.727C207.613 132.545 208.613 128.182 210.613 124.636C212.628 121.076 215.34 118.386 218.75 116.568C222.174 114.735 226.007 113.818 230.25 113.818C234.462 113.818 238.28 114.735 241.704 116.568C245.128 118.386 247.848 121.076 249.863 124.636C251.878 128.182 252.886 132.545 252.886 137.727ZM239.886 137.727C239.886 134.939 239.515 132.591 238.772 130.682C238.045 128.758 236.962 127.303 235.522 126.318C234.098 125.318 232.34 124.818 230.25 124.818C228.159 124.818 226.393 125.318 224.954 126.318C223.53 127.303 222.447 128.758 221.704 130.682C220.977 132.591 220.613 134.939 220.613 137.727C220.613 140.515 220.977 142.871 221.704 144.795C222.447 146.705 223.53 148.159 224.954 149.159C226.393 150.144 228.159 150.636 230.25 150.636C232.34 150.636 234.098 150.144 235.522 149.159C236.962 148.159 238.045 146.705 238.772 144.795C239.515 142.871 239.886 140.515 239.886 137.727Z" fill="black"/>
<path d="M259.372 114.455H275.1L285.918 140.818H286.463L297.282 114.455H313.009V161H300.645V134.091H300.282L289.918 160.636H282.463L272.1 133.909H271.736V161H259.372V114.455ZM364.728 137.727C364.728 142.909 363.721 147.28 361.706 150.841C359.691 154.386 356.971 157.076 353.547 158.909C350.122 160.727 346.304 161.636 342.092 161.636C337.85 161.636 334.016 160.72 330.592 158.886C327.183 157.038 324.471 154.341 322.456 150.795C320.456 147.235 319.456 142.879 319.456 137.727C319.456 132.545 320.456 128.182 322.456 124.636C324.471 121.076 327.183 118.386 330.592 116.568C334.016 114.735 337.85 113.818 342.092 113.818C346.304 113.818 350.122 114.735 353.547 116.568C356.971 118.386 359.691 121.076 361.706 124.636C363.721 128.182 364.728 132.545 364.728 137.727ZM351.728 137.727C351.728 134.939 351.357 132.591 350.615 130.682C349.887 128.758 348.804 127.303 347.365 126.318C345.941 125.318 344.183 124.818 342.092 124.818C340.001 124.818 338.236 125.318 336.797 126.318C335.372 127.303 334.289 128.758 333.547 130.682C332.819 132.591 332.456 134.939 332.456 137.727C332.456 140.515 332.819 142.871 333.547 144.795C334.289 146.705 335.372 148.159 336.797 149.159C338.236 150.144 340.001 150.636 342.092 150.636C344.183 150.636 345.941 150.144 347.365 149.159C348.804 148.159 349.887 146.705 350.615 144.795C351.357 142.871 351.728 140.515 351.728 137.727ZM371.215 161V114.455H391.397C394.942 114.455 397.92 114.932 400.329 115.886C402.753 116.841 404.579 118.189 405.806 119.932C407.048 121.674 407.67 123.727 407.67 126.091C407.67 127.803 407.291 129.364 406.533 130.773C405.791 132.182 404.745 133.364 403.397 134.318C402.048 135.258 400.473 135.909 398.67 136.273V136.727C400.67 136.803 402.488 137.311 404.124 138.25C405.76 139.174 407.063 140.455 408.033 142.091C409.003 143.712 409.488 145.621 409.488 147.818C409.488 150.364 408.821 152.629 407.488 154.614C406.17 156.598 404.291 158.159 401.851 159.295C399.412 160.432 396.503 161 393.124 161H371.215ZM383.851 150.909H389.76C391.882 150.909 393.473 150.515 394.533 149.727C395.594 148.924 396.124 147.742 396.124 146.182C396.124 145.091 395.874 144.167 395.374 143.409C394.874 142.652 394.162 142.076 393.238 141.682C392.329 141.288 391.23 141.091 389.942 141.091H383.851V150.909ZM383.851 133.273H389.033C390.139 133.273 391.117 133.098 391.965 132.75C392.813 132.402 393.473 131.902 393.942 131.25C394.427 130.583 394.67 129.773 394.67 128.818C394.67 127.379 394.154 126.28 393.124 125.523C392.094 124.75 390.791 124.364 389.215 124.364H383.851V133.273ZM427.241 114.455V161H414.605V114.455H427.241ZM433.87 161V114.455H446.506V150.818H465.325V161H433.87ZM471.073 161V114.455H504.618V124.636H483.709V132.636H502.891V142.818H483.709V150.818H504.527V161H471.073Z" fill="#FF0404"/>
</svg>
